<?xml version="1.0" encoding="UTF-8" standalone="no"?>
<svg
   xmlns:dc="http://purl.org/dc/elements/1.1/"
   xmlns:cc="http://creativecommons.org/ns#"
   xmlns:rdf="http://www.w3.org/1999/02/22-rdf-syntax-ns#"
   xmlns:svg="http://www.w3.org/2000/svg"
   xmlns="http://www.w3.org/2000/svg"
   viewBox="0 0 448 138.66667"
   height="138.66667"
   width="448"
   xml:space="preserve"
   id="svg2"
   version="1.1"><metadata
     id="metadata8"><rdf:RDF><cc:Work
         rdf:about=""><dc:format>image/svg+xml</dc:format><dc:type
           rdf:resource="http://purl.org/dc/dcmitype/StillImage" /></cc:Work></rdf:RDF></metadata><defs
     id="defs6" /><g
     transform="matrix(1.3333333,0,0,-1.3333333,0,138.66667)"
     id="g10"><g
       transform="scale(0.1)"
       id="g12"><path
         id="path14"
         style="fill:#dee3e3;fill-opacity:1;fill-rule:evenodd;stroke:none"
         d="M 377.301,456.09 C 293.629,453.75 224.77,446.371 170.59,433.91 116.48,421.25 88.5195,405.82 86.6797,387.699 89.0195,368.281 121.02,352.07 182.66,339.141 c 61.641,-12.692 138.942,-19.34 231.949,-19.84 61.871,0 117.692,3.238 167.422,9.719 49.77,6.21 89.098,14.5 118.129,24.851 -1.801,-0.242 -3.519,-0.633 -5.082,-1.141 -61.367,-13.98 -120.039,-11.519 -175.976,7.391 -55.942,19.18 -103.204,51.168 -141.801,95.969" /><path
         id="path16"
         style="fill:#949ca1;fill-opacity:1;fill-rule:evenodd;stroke:none"
         d="m 320.98,1022.5 c 43.75,-19.65 91.399,-46.602 142.969,-80.781 15.5,8.793 31.992,16.293 49.332,22.543 -68.402,26.398 -132.5,45.858 -192.301,58.238" /><path
         id="path18"
         style="fill:#949ca1;fill-opacity:1;fill-rule:evenodd;stroke:none"
         d="m 933.629,724.531 c 4.18,-20.703 6.211,-41.293 6.211,-61.801 52.859,-45.82 94.07,-91.64 123.6,-137.5 29.49,-45.582 29.26,-82.5 -0.82,-110.742 1.56,-0.226 3,7.153 4.29,22.153 1.02,15.269 -6.87,39.769 -23.71,73.437 -16.56,33.672 -51.29,78.203 -104.098,133.633 -3.122,-47.383 -15.704,-91.41 -37.692,-132.07 40.391,-68.403 51.289,-117.731 32.61,-148.051 -1.25,-2.301 -2.848,-4.25 -4.641,-5.82 98.671,-7.5 161.751,12.031 189.171,58.679 17.62,36.789 9.61,82.379 -24.06,136.75 -33.67,54.379 -87.26,111.492 -160.861,171.332" /><path
         id="path20"
         style="fill:#ffffff;fill-opacity:1;fill-rule:evenodd;stroke:none"
         d="m 939.102,643.711 c 52.578,-55.43 87.268,-99.961 104.098,-133.633 16.84,-33.668 24.61,-58.008 23.32,-73.047 -1.32,-15.269 -2.57,-22.769 -3.9,-22.543 30.08,28.242 30.31,65.16 0.82,110.742 -29.53,45.86 -70.862,91.68 -123.991,137.5 0.281,-6.441 0.16,-12.808 -0.347,-19.019" /><path
         id="path22"
         style="fill:#ffffff;fill-opacity:1;fill-rule:evenodd;stroke:none"
         d="m 873.398,857.809 c 0.821,-1.329 1.832,-2.61 3.122,-3.899 -1.008,1.289 -2.032,2.57 -3.122,3.899" /><path
         id="path24"
         style="fill:#ffffff;fill-opacity:1;fill-rule:evenodd;stroke:none"
         d="m 723.48,484.41 c -6.492,9.852 -15.429,15.82 -26.839,17.891 -11.129,1.84 -21.371,5.429 -30.7,10.859 -9.031,6.488 -17.703,13.09 -25.98,19.852 -3.91,2.297 -6.762,5.699 -8.59,10.078 0.27,2.07 0.66,4.531 1.168,7.379 -2.578,2.621 -4.769,5.82 -6.598,9.73 -0.281,6.211 1.438,11.641 5.039,16.321 3.668,4.652 4.801,10.242 3.508,16.679 -2.578,4.922 -7.5,9.071 -14.758,12.461 -7.5,3.36 -10,0.899 -7.39,-7.379 -8.551,-3.121 -17.852,-1.293 -27.961,5.43 -10.359,6.988 -19.848,10.98 -28.359,12.027 -9.301,-0.777 -18.399,-1.679 -27.192,-2.687 -12.457,-0.551 -24.879,-0.43 -37.308,0.39 -18.399,4.098 -32.77,13.469 -43.122,27.93 -10.347,14.801 -23.046,26.68 -38.089,35.777 3.64,-8.046 6.992,-16.058 10.121,-24.097 7.769,-1.571 12.539,-6.211 14.371,-13.992 -9.332,5.16 -16.211,12.543 -20.582,22.152 -7.27,8.789 -14.809,17.738 -22.578,26.801 -12.93,17.609 -16.411,36.789 -10.469,57.5 2.848,10.347 3.906,20.468 3.129,30.308 -2.352,2.621 -4.531,6.84 -6.602,12.809 0.742,4.652 1.949,9.34 3.473,13.992 1.289,12.418 -2.973,20.859 -12.813,25.231 -4.648,-0.231 -10.078,-2.813 -16.328,-7.774 -3.359,-4.879 -7.73,-8.519 -13.203,-10.859 -0.508,2.07 0.152,4.922 1.953,8.551 C 324.73,788.789 313.441,757.809 306.988,724.922 350.512,677.539 400.078,630 455.781,582.34 538.672,512.422 616.762,456.84 690.039,415.66 621.41,439.219 550.59,469.801 477.539,507.34 415.121,540 357.77,574.18 305.43,609.922 c 1.289,-6.992 2.691,-14.262 4.3,-21.762 12.93,-50.781 35.469,-94.762 67.571,-132.07 38.871,-44.801 86.097,-76.789 141.801,-95.969 55.937,-18.91 114.609,-21.371 175.976,-7.391 1.832,0.508 3.512,1.02 5.082,1.532 20.969,5.187 40.82,12.457 59.449,21.789 -16.058,4.89 -24.769,20.429 -26.058,46.609 -1.281,26.168 -4.641,46.75 -10.071,61.75" /><path
         id="path26"
         style="fill:#ffffff;fill-opacity:1;fill-rule:evenodd;stroke:none"
         d="m 636.051,683.359 c -3.121,-4.41 -6.992,-7.148 -11.641,-8.16 -0.269,4.41 1.641,8.391 5.82,12.031 4.149,3.629 6.719,4.411 7.782,2.34 0.226,-1.8 -0.391,-3.871 -1.961,-6.211 m -33,-7.769 c -13.25,-1.84 -27.352,-2.738 -42.391,-2.738 1.059,7.027 7.93,10.628 20.629,10.898 12.383,0 21.602,-0.391 27.582,-1.172 1.008,-4.418 -0.902,-6.758 -5.82,-6.988 m -16.332,228.82 c -7.5,-0.5 -14.418,1.961 -20.59,7.391 -6.207,5.187 -12.34,9.058 -18.277,11.64 -15.043,3.36 -30.43,3.118 -46.211,-0.742 -1.84,8.281 2.847,15.781 13.98,22.5 10.859,6.75 19.77,9.449 26.801,8.16 l -2.731,5.039 c 5.43,-6.949 13.079,-10.738 22.93,-11.25 9.57,-0.507 16.828,-3.597 21.758,-9.296 2.851,-6.762 5.07,-13.633 6.601,-20.622 5.969,-7.5 4.532,-11.8 -4.261,-12.82 m -48.168,-17.07 c -7.262,-2.07 -15.539,-3.121 -24.879,-3.121 -1.293,7.73 -5.473,11.801 -12.422,12.031 -6.988,0.27 -11.051,4.141 -12.07,11.641 l 13.199,-1.129 c 9.07,-7.032 20.242,-8.563 33.441,-4.692 -1.84,-6.211 -0.941,-11.129 2.731,-14.73 m 80.039,-31.871 c 0.238,-1.84 0.121,-3.629 -0.43,-5.43 -5.699,-1.84 -11.25,-3.789 -16.711,-5.859 -3.871,4.922 -4.109,9.609 -0.75,14.019 l 3.09,-0.82 c 4.691,-1.25 9.609,-1.91 14.801,-1.91 M 939.449,662.73 c 0,20.508 -1.91,41.098 -5.82,61.801 -1.008,4.649 -2.07,9.34 -3.078,13.989 -5.199,21.75 -12.461,42.378 -21.762,61.789 -0.551,0 -0.937,-0.149 -1.168,-0.387 3.078,-10.902 1.289,-19.961 -5.43,-27.223 -8.281,0 -16.839,3 -25.671,8.942 -16.559,10.39 -30.04,23.98 -40.391,40.781 -6.481,7.269 -11.289,15.668 -14.367,25.277 -4.184,8.281 -9.184,15.539 -15.16,21.75 -4.141,5.711 -9.454,13.871 -15.942,24.461 -6.441,10.621 -7.648,17.649 -3.469,21.012 -1.293,5.668 -2.621,11.367 -3.91,17.066 4.649,-0.508 8.321,-2.578 10.899,-6.207 3.359,-0.781 6.48,-1.133 9.3,-1.133 -14.46,10.313 -29.769,19.411 -45.82,27.192 -2.351,-0.281 -4.422,0 -6.211,0.738 1.789,-9.027 6.481,-15.277 13.981,-18.629 7.5,-3.359 13.09,-9.07 16.679,-17.07 2.34,-9.609 -0.507,-12.859 -8.519,-9.731 -8.281,3.082 -14.918,6.051 -19.84,8.903 -4.648,1.058 -8.789,2.23 -12.422,3.519 -1.289,5.2 -1.168,8.789 0.391,10.899 -3.36,6.441 -8.668,9.41 -15.938,8.91 -4.922,5.93 -11.25,8.391 -19.019,7.383 -6.492,-2.352 -13.321,-4.141 -20.59,-5.434 -5.434,4.141 -10.742,7.891 -15.942,11.25 8.79,0 18.008,1.051 27.579,3.121 -4.649,6.723 -11.399,11.25 -20.188,13.602 -8.012,-3.871 -14.769,-3.75 -20.199,0.39 -7.774,-1.8 -15.543,-2.742 -23.32,-2.742 -0.512,0.551 -3.364,2.192 -8.551,5.039 -5.199,3.133 -9.18,5.082 -12.031,5.864 -7.27,-0.274 -13.719,1.019 -19.461,3.867 -16.289,-1.289 -32.61,-3.867 -48.938,-7.77 -10.859,-2.859 -21.492,-6.058 -31.84,-9.687 -17.07,-5.981 -33.551,-13.364 -49.332,-22.153 -49.5,-28.238 -88.597,-66.211 -117.347,-113.871 5.16,7.274 9.449,12.582 12.808,15.942 7.27,6.25 14.539,12.3 21.762,18.281 3.129,6.719 7.5,11.918 13.207,15.551 3.391,-1.563 7.652,-3.364 12.812,-5.473 7.539,0.512 14.688,1.723 21.36,3.512 12.469,-2.61 22.82,-2.071 31.097,1.57 -20.468,6.719 -19.527,11.359 2.731,13.981 10.351,0 19.141,-3.122 26.41,-9.332 -4.41,-4.649 -9.34,-12.192 -14.769,-22.54 -5.192,-10.351 -3.981,-17.46 3.519,-21.371 8.051,1.051 16.949,1.68 26.801,1.95 6.711,-6.207 13.859,-10.508 21.359,-12.809 -2.808,13.199 -5.82,25.781 -8.937,37.66 1.328,7.031 4.289,9.719 8.937,8.16 4.653,-1.8 9.571,-3.75 14.77,-5.82 1.293,11.41 7.261,14.531 17.89,9.34 4.411,-0.551 10.59,-1.059 18.629,-1.57 7.782,-0.5 13.321,-2.071 16.684,-4.68 3.668,-5.16 1.719,-11.762 -5.82,-19.77 -7.5,-8.05 -13.321,-14.531 -17.461,-19.449 6.211,0.539 11.64,0 16.328,-1.57 4.14,0.277 8.793,1.57 13.98,3.91 -1.828,-9.332 -7.769,-13.871 -17.89,-13.633 -4.368,-11.367 -8.547,-22.226 -12.418,-32.617 -4.141,-9.02 -5.7,-18.75 -4.653,-29.141 -4.179,-11.129 -7.769,-22.269 -10.898,-33.398 3.359,-9.844 7.66,-20.082 12.82,-30.703 -2.039,-1.02 -4.14,-1.559 -6.211,-1.559 -4.929,8.32 -11.758,12.692 -20.59,13.199 -3.871,1.051 -8.828,1.442 -14.769,1.211 -5.699,-0.269 -8.668,-3.359 -8.942,-9.371 -6.718,-2.82 -12.027,-3.988 -15.898,-3.48 -3.629,0.269 -6.988,-3.867 -10.121,-12.418 -4.141,-10.629 -3.789,-21.641 1.172,-33.012 7,-10.898 16.679,-15.699 29.148,-14.379 3.629,2.578 6.321,6.961 8.121,13.211 2.11,5.93 4.571,9.801 7.418,11.641 5.672,1.558 8.793,-1.172 9.301,-8.172 0.781,-6.988 2.461,-12.418 5.039,-16.289 4.922,-3.672 9.613,-4.289 14.024,-1.949 4.378,2.578 9.058,3.089 13.988,1.558 4.41,-9.101 10.461,-17.379 18.238,-24.879 6.481,0 11.012,2.071 13.594,6.207 5.976,0.782 10.387,1.063 13.238,0.782 2.309,0.281 4.77,0.511 7.391,0.781 -4.18,15.789 -0.16,24.461 12.027,26.019 11.91,1.84 22.934,3.36 33.012,4.692 8.039,6.437 17.219,10.226 27.57,11.25 10.391,-3.602 20.75,-6.602 31.102,-8.91 10.898,4.097 22.148,5.308 33.789,3.476 5.699,-3.09 10.109,-5.707 13.199,-7.777 2.852,-2.34 8.16,-2.852 15.941,-1.563 12.18,3.403 23.438,5.59 33.829,6.602 10.582,1.058 17.851,-5.149 21.71,-18.629 7.54,-32.383 3.52,-63.199 -12.031,-92.461 -6.211,-14.488 -11.91,-29.141 -17.109,-43.91 -4.641,-15.539 -13.59,-27.969 -26.789,-37.301 6.211,-5.699 5.07,-11.801 -3.481,-18.238 -8.55,-6.762 -14.922,-12.582 -19.019,-17.5 -8.321,-15 -9.852,-28.75 -4.692,-41.172 56.993,31.051 100.512,74.332 130.551,129.762 21.75,40.898 34.328,84.918 37.692,132.07 0.238,6.211 0.347,12.578 0.347,19.019" /><path
         id="path28"
         style="fill:#005494;fill-opacity:1;fill-rule:evenodd;stroke:none"
         d="m 775.941,423.051 c 4.098,4.918 10.469,10.738 19.02,17.5 8.277,6.437 9.418,12.539 3.48,18.238 13.2,9.332 22.149,21.762 26.789,37.301 4.93,14.769 10.629,29.531 17.11,44.262 15.551,29.027 19.57,59.726 12.039,92.109 -3.867,13.48 -11.141,19.687 -21.758,18.629 -10.59,-1.012 -21.883,-3.078 -33.793,-6.211 -7.777,-1.289 -13.09,-0.899 -15.937,1.172 -3.09,2.07 -7.5,4.687 -13.2,7.777 -11.921,1.832 -23.171,0.781 -33.793,-3.09 -10.347,2.032 -20.699,4.922 -31.097,8.524 C 694.18,658.52 685,654.73 677.23,648.012 c -10.082,-1.332 -21.21,-2.852 -33.402,-4.692 -11.918,-1.558 -15.937,-10.23 -12.027,-26.019 -2.621,-0.27 -4.922,-0.5 -7.031,-0.781 -2.821,0.281 -7.27,0 -13.211,-0.782 -2.579,-4.136 -7.258,-6.207 -13.981,-6.207 -7.5,7.5 -13.598,15.778 -18.238,24.879 -4.692,1.531 -9.34,1.02 -13.988,-1.558 -4.411,-2.34 -8.942,-1.723 -13.59,1.949 -2.621,3.871 -4.301,9.301 -5.043,16.289 -0.821,7 -4.059,9.73 -9.731,8.172 -2.609,-1.84 -4.957,-5.711 -7.027,-11.641 -2.031,-6.25 -4.883,-10.633 -8.512,-13.211 -12.469,-1.32 -22.148,3.481 -29.148,14.379 -4.68,11.641 -4.961,22.66 -0.781,33.012 2.859,8.551 6.21,12.687 10.121,12.418 3.589,-0.508 8.91,0.66 15.937,3.48 0,6.012 2.973,9.102 8.902,9.371 5.942,0.508 10.86,0.231 14.77,-0.781 8.551,-0.82 15.27,-5.309 20.199,-13.629 2.34,0.27 4.531,0.82 6.641,1.559 -5.199,10.621 -9.61,20.859 -13.25,30.703 3.359,11.129 7,22.269 10.898,33.398 -0.777,10.391 0.903,20.121 5.043,29.141 3.629,10.391 7.77,21.25 12.418,32.617 10.121,-0.238 16.063,4.301 17.891,13.633 -5.192,-2.34 -9.879,-3.633 -13.981,-3.91 -4.687,1.57 -10.121,2.109 -16.328,1.57 4.141,4.918 9.957,11.399 17.457,19.449 7.543,8.008 9.34,14.61 5.434,19.77 -3.363,2.609 -8.902,4.18 -16.684,4.68 -7.769,0.511 -13.867,1.019 -18.277,1.57 -10.59,5.191 -16.68,2.07 -18.242,-9.34 -5.199,2.07 -10.117,4.02 -14.77,5.82 -4.648,1.559 -7.5,-1.129 -8.551,-8.16 3.122,-11.879 5.973,-24.461 8.551,-37.66 -7.258,2.301 -14.371,6.602 -21.359,12.809 -9.57,-0.27 -18.52,-0.899 -26.801,-1.95 -7.5,3.911 -8.559,11.02 -3.129,21.371 5.469,10.348 10.238,17.891 14.379,22.54 -6.988,6.21 -15.668,9.332 -26.019,9.332 -22.54,-2.622 -23.43,-7.262 -2.731,-13.981 -8.277,-3.641 -18.75,-4.18 -31.488,-1.57 -6.672,-1.789 -13.711,-3 -20.973,-3.512 -5.43,2.109 -9.687,3.91 -12.777,5.473 -5.973,-3.364 -10.391,-8.563 -13.199,-15.551 -7.543,-5.981 -14.922,-11.91 -22.192,-17.891 -3.359,-3.629 -7.5,-9.058 -12.422,-16.332 -2.297,-3.59 -4.258,-6.949 -5.816,-10.078 -1.793,-3.629 -2.621,-6.601 -2.344,-8.941 5.473,2.34 9.961,5.98 13.633,10.859 5.937,5.192 11.25,7.774 15.898,7.774 9.84,-4.372 14.102,-12.813 12.813,-25.231 -1.293,-4.422 -2.461,-9.07 -3.473,-13.992 2.071,-5.699 4.41,-9.957 6.992,-12.809 0.508,-9.84 -0.671,-19.961 -3.519,-30.308 -5.942,-20.434 -2.301,-39.653 10.898,-57.5 7.5,-8.832 14.879,-17.742 22.149,-26.801 4.371,-9.609 11.25,-16.832 20.582,-21.762 -1.563,7.742 -6.25,12.313 -14.02,13.602 -3.359,8.277 -6.679,16.328 -10.082,24.097 15.039,-9.097 27.582,-20.859 37.699,-35.386 10.352,-14.731 24.723,-24.063 43.122,-27.934 12.429,-1.058 24.851,-1.207 37.308,-0.387 8.793,0.739 17.891,1.637 27.192,2.688 8.511,-1.289 18,-5.309 28.359,-12.027 10.391,-6.993 19.68,-8.832 27.961,-5.473 -2.34,8.051 0.121,10.391 7.39,7.031 7.258,-3.39 12.18,-7.379 14.758,-12.07 1.563,-6.442 0.512,-12.031 -3.117,-16.68 -3.871,-4.68 -5.711,-10.109 -5.43,-16.32 2.071,-3.91 4.411,-7.27 6.989,-10.121 -0.739,-2.848 -1.289,-5.16 -1.559,-6.989 2.07,-4.378 4.918,-7.89 8.59,-10.468 8.277,-6.762 16.949,-13.364 25.98,-19.852 9.329,-5.43 19.719,-9.019 31.09,-10.859 11.41,-1.832 20.348,-7.653 26.797,-17.5 5.192,-15 8.442,-35.742 9.723,-62.141 1.289,-26.18 10,-41.719 26.058,-46.609 4.371,-0.539 9.571,0.121 15.512,1.918 -1.531,1.051 -2.851,2.34 -3.871,3.91 -5.199,12.422 -3.59,26.172 4.691,41.172" /><path
         id="path30"
         style="fill:#005494;fill-opacity:1;fill-rule:evenodd;stroke:none"
         d="m 783.281,931.602 c 1.289,-5.43 2.457,-11.012 3.52,-16.68 -3.91,-3.363 -2.582,-10.512 3.859,-21.371 6.488,-10.621 11.801,-18.672 15.942,-24.102 5.976,-6.48 10.976,-13.711 15.16,-21.75 3.078,-9.609 7.886,-18.008 14.367,-25.277 10.351,-17.07 23.832,-30.66 40.391,-40.781 8.832,-6.211 17.39,-9.34 25.671,-9.34 6.719,7.5 8.508,16.719 5.43,27.621 0.231,0.238 0.617,0.387 1.168,0.387 2.621,0.511 4.262,-0.899 5.039,-4.289 v 5.429 c 3.633,6.25 0.391,14.41 -9.687,24.492 -10.121,10.079 -19.301,19.411 -27.621,27.969 -1.29,1.289 -2.301,2.57 -3.122,3.899 -2.808,3.601 -3.597,6.601 -2.308,8.91 -12.141,13.75 -25.738,26.832 -40.781,39.261 -6.719,6.719 -13.86,12.54 -21.36,17.461 -2.109,0.778 -3.871,1.207 -5.469,1.207 -2.82,-0.269 -5.941,0.122 -9.3,1.133 -2.578,3.629 -6.25,5.547 -10.899,5.821" /><path
         id="path32"
         style="fill:#005494;fill-opacity:1;fill-rule:evenodd;stroke:none"
         d="m 584.379,937.852 c -4.93,5.699 -12.188,8.789 -21.758,9.296 -9.851,0.274 -17.5,4.024 -22.93,11.25 l 2.34,-5.039 c -6.761,1.289 -15.66,-1.41 -26.801,-8.16 -10.89,-6.719 -15.429,-14.219 -13.589,-22.5 15.781,3.86 31.168,4.102 46.211,0.742 5.937,-2.582 12.07,-6.562 18.277,-12.031 6.172,-5.16 13.09,-7.5 20.59,-7 8.793,1.02 10.23,5.32 4.261,12.82 -1.531,6.989 -3.75,13.86 -6.601,20.622" /><path
         id="path34"
         style="fill:#005494;fill-opacity:1;fill-rule:evenodd;stroke:none"
         d="m 613.52,977.852 c 2.851,-0.782 6.832,-2.731 12.031,-5.864 5.187,-3.078 8.039,-4.758 8.551,-5.039 7.5,0 15.277,0.942 23.32,2.742 5.43,-4.421 12.187,-4.652 20.199,-0.781 8.789,-2.07 15.43,-6.488 19.801,-13.211 -9.301,-2.34 -18.402,-3.359 -27.192,-3.121 5.2,-3.359 10.36,-7.109 15.551,-11.25 7.5,1.012 14.489,2.731 20.981,5.043 7.769,1.051 14.097,-1.293 19.019,-6.992 6.989,0.269 12.309,-2.738 15.938,-8.91 -1.559,-2.11 -1.68,-5.821 -0.391,-11.289 3.363,-1.289 7.543,-2.301 12.422,-3.129 4.922,-3.082 11.41,-6.09 19.449,-8.903 8.281,-3.128 11.25,0.122 8.91,9.731 -3.589,7.769 -9.179,13.32 -16.679,16.672 -7.77,3.359 -12.461,9.73 -13.981,19.027 1.789,-0.738 3.86,-1.129 6.211,-1.129 1.789,0.231 3.469,0.231 5.039,0 -10.078,8 -22.148,13.199 -36.14,15.5 -13.2,5.981 -27.071,10.629 -41.559,14.031 -24.379,5.661 -48.949,8.79 -73.828,9.29 -2.813,0.242 -6.992,0.242 -12.422,0 -5.43,-0.27 -7.109,-3.122 -5.078,-8.551 5.976,-3.09 12.578,-4.418 19.848,-3.867" /><path
         id="path36"
         style="fill:#005494;fill-opacity:1;fill-rule:evenodd;stroke:none"
         d="m 560.66,672.852 c 15.32,0 29.539,0.898 42.738,2.738 4.961,0.23 6.872,2.57 5.821,6.988 -5.938,0.781 -15.27,1.172 -27.93,1.172 -12.699,-0.27 -19.57,-3.871 -20.629,-10.898" /><path
         id="path38"
         style="fill:#005494;fill-opacity:1;fill-rule:evenodd;stroke:none"
         d="m 624.41,675.199 c 4.93,1.012 8.91,3.75 12,8.16 1.602,2.071 2.219,4.141 1.949,6.211 -1.019,2.071 -3.589,1.289 -7.769,-2.34 -4.11,-3.64 -6.18,-7.621 -6.18,-12.031" /><path
         id="path40"
         style="fill:#005494;fill-opacity:1;fill-rule:evenodd;stroke:none"
         d="m 536.211,902.07 c -13.199,-3.871 -24.332,-2.34 -33.441,4.692 l -13.2,1.129 c 1.051,-7.5 5.039,-11.371 12.071,-11.641 6.949,-0.23 11.129,-4.301 12.379,-12.031 9.378,0 17.66,1.051 24.929,3.121 -3.91,3.601 -4.808,8.519 -2.738,14.73" /><path
         id="path42"
         style="fill:#005494;fill-opacity:1;fill-rule:evenodd;stroke:none"
         d="m 601.449,844.18 c 5.461,2.07 11.012,4.019 16.711,5.859 0.551,1.801 0.668,3.59 0.43,5.43 -5.192,0 -10.11,0.66 -14.801,1.91 l -3.09,0.82 c -3.359,-4.41 -3.121,-9.097 0.75,-14.019" /><path
         id="path44"
         style="fill:#11b3e8;fill-opacity:1;fill-rule:evenodd;stroke:none"
         d="M 73.0898,987.539 C 70,953.359 85,910.898 118.16,860.121 c 32.891,-51.019 66.719,-96.723 101.41,-137.152 34.961,-40.117 53.871,-61.367 56.719,-63.707 -90.668,79.258 -149.687,143.117 -177.1874,191.558 -27.461,48.16 -39.3321,83.129 -35.7422,104.879 3.6289,21.762 6.9101,32.391 9.7304,31.84 M 690.039,415.66 C 616.48,456.84 538.398,512.422 455.781,582.34 400.078,630 350.352,677.539 306.559,724.922 242.07,795.352 195.078,858.828 165.551,915.27 c -29.531,56.492 -35.981,97.93 -19.422,124.34 0.242,0 0.512,0.16 0.781,0.39 C 90.4297,1034.3 53.1211,1015.04 35,982.109 14.5703,938.09 29.3008,882.539 79.3008,815.469 129.059,748.359 204.41,680 305.43,610.309 357.77,574.301 415.121,540 477.539,507.34 550.59,469.801 621.41,439.219 690.039,415.66" /><path
         id="path46"
         style="fill:#ffffff;fill-opacity:1;fill-rule:evenodd;stroke:none"
         d="m 73.0898,987.93 c -2.5781,0.269 -5.8203,-10.352 -9.7304,-31.84 -3.5899,-21.75 8.2812,-56.871 35.7422,-105.27 27.5004,-48.199 86.5194,-112.031 177.1874,-191.558 -2.848,2.34 -21.641,23.707 -56.328,64.097 C 185,763.52 151.051,809.102 118.16,860.121 85.2305,911.172 70.2695,953.75 73.0898,987.93" /><path
         id="path48"
         style="fill:#005596;fill-opacity:1;fill-rule:nonzero;stroke:none"
         d="m 1305.66,360.898 v 32.192 c 28.44,-10.121 59.14,-15.16 92.19,-15.16 46.64,0 70,17.07 70,51.25 0,29.058 -17.19,43.59 -51.56,43.59 h -38.75 c -56.8,0 -85.16,24.609 -85.16,73.91 0,51.871 36.33,77.808 109.07,77.808 31.64,0 61.09,-3.828 88.28,-11.398 v -32.192 c -27.19,10.082 -56.64,15.153 -88.28,15.153 -49.3,0 -73.91,-16.481 -73.91,-49.371 0,-29.059 16.64,-43.59 50,-43.59 h 38.75 c 57.81,0 86.72,-24.649 86.72,-73.91 0,-53.129 -35.08,-79.692 -105.16,-79.692 -33.05,0 -63.75,3.793 -92.19,11.41 z m 453.75,1.09 c -21.87,-8.359 -45.43,-12.5 -70.62,-12.5 -98.36,0 -147.5,47.071 -147.5,141.25 0,89.141 47.42,133.75 142.34,133.75 27.19,0 52.42,-3.828 75.78,-11.398 v -30.32 c -23.36,8.832 -47.34,13.281 -72.03,13.281 -73.98,0 -110.93,-35.11 -110.93,-105.313 0,-75.226 36.4,-112.808 109.21,-112.808 11.64,0 24.57,1.48 38.75,4.531 v 92.187 h 35 z" /><path
         id="path50"
         style="fill:#005596;fill-opacity:1;fill-rule:nonzero;stroke:none"
         d="m 1789.61,351.371 115.16,271.25 h 38.9 l 115.63,-271.25 h -36.88 l -36.09,85.309 h -90.63 l 9.69,28.441 h 67.66 l -50,121.09 -97.03,-234.84 z" /><path
         id="path52"
         style="fill:#005596;fill-opacity:1;fill-rule:nonzero;stroke:none"
         d="M 102.852,198.711 V 182.148 H 20.3516 V 129.34 H 98.9492 V 112.93 H 20.3516 V 41.3711 H 0.0390625 V 198.711 Z M 133.398,41.3711 V 198.711 h 67.032 c 29.879,0 44.84,-12.621 44.84,-37.813 0,-20.429 -14.649,-35.546 -43.899,-45.308 L 255.43,41.3711 h -26.879 l -50,70.7769 v 13.282 c 30.078,4.769 45.16,16.332 45.16,34.691 0,14.449 -8.402,21.719 -25.16,21.719 h -44.84 V 41.3711 Z" /><path
         id="path54"
         style="fill:#005596;fill-opacity:1;fill-rule:nonzero;stroke:none"
         d="M 377.5,198.711 V 182.148 H 295 V 129.34 h 78.59 V 112.93 H 295 V 57.9297 h 84.219 V 41.3711 H 274.691 V 198.711 Z" /><path
         id="path56"
         style="fill:#005596;fill-opacity:1;fill-rule:nonzero;stroke:none"
         d="M 512.191,198.711 V 182.148 H 462.66 V 41.3711 H 442.34 V 182.148 h -49.531 v 16.563 z" /><path
         id="path58"
         style="fill:#005596;fill-opacity:1;fill-rule:nonzero;stroke:none"
         d="m 576.25,90.8906 h 55 v 16.4102 h -55 z" /><path
         id="path60"
         style="fill:#005596;fill-opacity:1;fill-rule:nonzero;stroke:none"
         d="m 714.34,46.8398 v 18.75 c 16.441,-5.8593 34.25,-8.75 53.43,-8.75 27.07,0 40.628,9.879 40.628,29.6797 0,16.8785 -10,25.3205 -30,25.3205 h -22.347 c -33.039,0 -49.531,14.25 -49.531,42.808 0,30.082 21.101,45.153 63.281,45.153 18.32,0 35.398,-2.18 51.25,-6.563 v -18.75 c -15.852,5.821 -32.93,8.75 -51.25,8.75 -28.551,0 -42.813,-9.527 -42.813,-28.59 0,-16.878 9.692,-25.308 29.063,-25.308 h 22.347 c 33.512,0 50.313,-14.301 50.313,-42.8205 0,-30.8593 -20.313,-46.25 -60.941,-46.25 -19.18,0 -36.989,2.1914 -53.43,6.5703 z" /><path
         id="path62"
         style="fill:#005596;fill-opacity:1;fill-rule:nonzero;stroke:none"
         d="M 959.34,198.711 V 182.148 H 909.801 V 41.3711 H 889.488 V 182.148 h -49.527 v 16.563 z" /><path
         id="path64"
         style="fill:#005596;fill-opacity:1;fill-rule:nonzero;stroke:none"
         d="m 1049.22,56.8398 c 37.5,0 56.25,21.1719 56.25,63.5902 0,41.871 -18.75,62.808 -56.25,62.808 -38.36,0 -57.501,-20.937 -57.501,-62.808 0,-42.4183 19.141,-63.5902 57.501,-63.5902 z m -79.06,62.9612 c 0,53.32 26.32,80 79.06,80 51.87,0 77.81,-26.68 77.81,-80 0,-53.0393 -25.94,-79.5315 -77.81,-79.5315 -52.74,0 -79.06,26.4922 -79.06,79.5315 z" /><path
         id="path66"
         style="fill:#005596;fill-opacity:1;fill-rule:nonzero;stroke:none"
         d="m 1275.43,46.8398 c -13.55,-4.3789 -28.24,-6.5703 -44.06,-6.5703 -55,0 -82.5,27.3516 -82.5,82.0315 0,51.648 27.5,77.5 82.5,77.5 15.82,0 30.51,-2.18 44.06,-6.563 V 175.59 c -13.55,5.07 -27.46,7.648 -41.72,7.648 -42.93,0 -64.37,-20.308 -64.37,-60.937 0,-43.6721 21.44,-65.4612 64.37,-65.4612 14.26,0 28.17,2.5391 41.72,7.6485 z" /><path
         id="path68"
         style="fill:#005596;fill-opacity:1;fill-rule:nonzero;stroke:none"
         d="m 1327.07,41.3711 h -20.3086 v 157.34 h 20.3086 z m 108.44,157.3399 -70.47,-73.441 79.69,-83.8989 h -30.47 l -69.53,76.7189 v 12.34 l 65,68.281 z" /><path
         id="path70"
         style="fill:#005596;fill-opacity:1;fill-rule:nonzero;stroke:none"
         d="m 1450.55,41.3711 66.72,157.3399 h 22.5 l 67.18,-157.3399 h -21.4 l -20.94,49.5273 h -52.66 l 5.63,16.4026 h 39.22 l -28.91,70.32 -56.25,-136.2499 z" /><path
         id="path72"
         style="fill:#005596;fill-opacity:1;fill-rule:nonzero;stroke:none"
         d="m 1747.23,47.4609 c -12.74,-4.8007 -26.41,-7.1914 -41.1,-7.1914 -56.99,0 -85.47,27.3516 -85.47,82.0315 0,51.648 27.5,77.5 82.5,77.5 15.82,0 30.51,-2.18 44.07,-6.563 V 175.59 c -13.56,5.07 -27.46,7.648 -41.72,7.648 -42.93,0 -64.38,-20.308 -64.38,-60.937 0,-43.6721 21.1,-65.4612 63.28,-65.4612 6.76,0 14.26,0.8204 22.5,2.5 V 112.93 h 20.32 z" /><path
         id="path74"
         style="fill:#005596;fill-opacity:1;fill-rule:nonzero;stroke:none"
         d="m 1881.37,198.711 v -16.563 h -82.5 V 129.34 h 78.59 v -16.41 h -78.59 V 57.9297 h 84.22 V 41.3711 H 1778.55 V 198.711 Z" /><path
         id="path76"
         style="fill:#005596;fill-opacity:1;fill-rule:nonzero;stroke:none"
         d="m 1960.86,90.8906 h 55 v 16.4102 h -55 z" /><path
         id="path78"
         style="fill:#005596;fill-opacity:1;fill-rule:nonzero;stroke:none"
         d="M 2117.07,198.711 V 57.9297 h 82.34 V 41.3711 H 2096.76 V 198.711 Z" /><path
         id="path80"
         style="fill:#005596;fill-opacity:1;fill-rule:nonzero;stroke:none"
         d="m 2284.18,56.8398 c 37.5,0 56.25,21.1719 56.25,63.5902 0,41.871 -18.75,62.808 -56.25,62.808 -38.36,0 -57.5,-20.937 -57.5,-62.808 0,-42.4183 19.14,-63.5902 57.5,-63.5902 z m -79.06,62.9612 c 0,53.32 26.33,80 79.06,80 51.87,0 77.81,-26.68 77.81,-80 0,-53.0393 -25.94,-79.5315 -77.81,-79.5315 -52.73,0 -79.06,26.4922 -79.06,79.5315 z" /><path
         id="path82"
         style="fill:#005596;fill-opacity:1;fill-rule:nonzero;stroke:none"
         d="m 2510.35,47.4609 c -12.73,-4.8007 -26.4,-7.1914 -41.09,-7.1914 -56.99,0 -85.47,27.3516 -85.47,82.0315 0,51.648 27.5,77.5 82.5,77.5 15.82,0 30.51,-2.18 44.06,-6.563 V 175.59 c -13.55,5.07 -27.46,7.648 -41.72,7.648 -42.93,0 -64.37,-20.308 -64.37,-60.937 0,-43.6721 21.09,-65.4612 63.28,-65.4612 6.76,0 14.26,0.8204 22.5,2.5 V 112.93 h 20.31 z" /><path
         id="path84"
         style="fill:#005596;fill-opacity:1;fill-rule:nonzero;stroke:none"
         d="m 2541.72,41.3711 h 20.3125 v 157.34 H 2541.72 Z" /><path
         id="path86"
         style="fill:#005596;fill-opacity:1;fill-rule:nonzero;stroke:none"
         d="m 2597.15,46.8398 v 18.75 c 16.44,-5.8593 34.26,-8.75 53.44,-8.75 27.07,0 40.62,9.879 40.62,29.6797 0,16.8785 -10,25.3205 -30,25.3205 h -22.34 c -33.05,0 -49.53,14.25 -49.53,42.808 0,30.082 21.09,45.153 63.28,45.153 18.32,0 35.39,-2.18 51.25,-6.563 v -18.75 c -15.86,5.821 -32.93,8.75 -51.25,8.75 -28.56,0 -42.82,-9.527 -42.82,-28.59 0,-16.878 9.69,-25.308 29.07,-25.308 h 22.34 c 33.52,0 50.31,-14.301 50.31,-42.8205 0,-30.8593 -20.31,-46.25 -60.93,-46.25 -19.18,0 -37,2.1914 -53.44,6.5703 z" /><path
         id="path88"
         style="fill:#005596;fill-opacity:1;fill-rule:nonzero;stroke:none"
         d="m 2842.15,198.711 v -16.563 h -49.53 V 41.3711 H 2772.3 V 182.148 h -49.53 v 16.563 z" /><path
         id="path90"
         style="fill:#005596;fill-opacity:1;fill-rule:nonzero;stroke:none"
         d="m 2858.59,41.3711 h 20.3086 v 157.34 H 2858.59 Z" /><path
         id="path92"
         style="fill:#005596;fill-opacity:1;fill-rule:nonzero;stroke:none"
         d="m 2985.27,56.8398 c 37.5,0 56.25,21.1719 56.25,63.5902 0,41.871 -18.75,62.808 -56.25,62.808 -38.36,0 -57.5,-20.937 -57.5,-62.808 0,-42.4183 19.14,-63.5902 57.5,-63.5902 z m -79.06,62.9612 c 0,53.32 26.33,80 79.06,80 51.88,0 77.82,-26.68 77.82,-80 0,-43.8596 -17.82,-69.7619 -53.44,-77.6526 L 3035.27,12.4609 3019.34,0.589844 2985.27,40.2695 c -52.73,0 -79.06,26.4922 -79.06,79.5315 z" /><path
         id="path94"
         style="fill:#005596;fill-opacity:1;fill-rule:nonzero;stroke:none"
         d="m 3090.55,102.148 v 96.563 h 20.31 v -96.563 c 0,-30.2378 15.04,-45.3082 45.16,-45.3082 30,0 45,15.0704 45,45.3082 v 96.563 h 20.31 v -96.563 c 0,-41.2496 -21.8,-61.8785 -65.31,-61.8785 -43.68,0 -65.47,20.6289 -65.47,61.8785 z" /><path
         id="path96"
         style="fill:#005596;fill-opacity:1;fill-rule:nonzero;stroke:none"
         d="M 3357.5,198.711 V 182.148 H 3275 V 129.34 h 78.59 V 112.93 H 3275 V 57.9297 h 84.22 V 41.3711 H 3254.69 V 198.711 Z" /></g></g></svg>